<?xml version="1.0" encoding="UTF-8" standalone="no"?>
<!DOCTYPE svg PUBLIC "-//W3C//DTD SVG 1.1//EN" "http://www.w3.org/Graphics/SVG/1.1/DTD/svg11.dtd">
<svg width="100%" height="100%" viewBox="0 0 101 14" version="1.1" xmlns="http://www.w3.org/2000/svg" xmlns:xlink="http://www.w3.org/1999/xlink" xml:space="preserve" xmlns:serif="http://www.serif.com/" style="fill-rule:evenodd;clip-rule:evenodd;stroke-linejoin:round;stroke-miterlimit:2;">
    <path d="M4.366,3.994C4.436,3.643 4.741,3.375 5.1,3.375L8.071,3.375C8.469,3.375 8.645,3.192 8.882,2.835L10.191,0.376C10.314,0.145 10.556,0 10.819,0L21.753,0C22.035,0 22.269,0.217 22.292,0.497C22.732,5.949 23.289,9.644 26.82,12.989C27.19,13.34 26.953,14 26.442,14L0.559,14C0.047,14 -0.19,13.339 0.181,12.987C2.708,10.592 3.72,7.972 4.255,4.581C4.282,4.411 4.315,4.248 4.348,4.084C4.354,4.054 4.36,4.024 4.366,3.994Z"/>
    <path d="M33.812,14C32.166,14 30.806,13.621 29.73,12.864C28.667,12.094 28.091,10.97 28,9.494L32.587,9.494C32.652,10.277 33.002,10.669 33.637,10.669C33.871,10.669 34.065,10.617 34.22,10.514C34.389,10.399 34.473,10.226 34.473,9.995C34.473,9.674 34.298,9.417 33.948,9.224C33.598,9.019 33.054,8.788 32.315,8.531C31.434,8.223 30.702,7.921 30.119,7.626C29.549,7.331 29.056,6.901 28.642,6.336C28.227,5.771 28.026,5.045 28.039,4.16C28.039,3.274 28.266,2.523 28.719,1.906C29.186,1.277 29.814,0.802 30.605,0.481C31.408,0.16 32.309,0 33.307,0C34.992,0 36.326,0.385 37.311,1.155C38.309,1.926 38.834,3.011 38.886,4.41L34.24,4.41C34.227,4.025 34.13,3.749 33.948,3.582C33.767,3.415 33.547,3.332 33.287,3.332C33.106,3.332 32.957,3.396 32.84,3.524C32.724,3.64 32.665,3.807 32.665,4.025C32.665,4.333 32.834,4.59 33.171,4.795C33.521,4.988 34.071,5.225 34.823,5.508C35.691,5.829 36.404,6.137 36.961,6.432C37.532,6.727 38.024,7.138 38.439,7.664C38.853,8.191 39.061,8.852 39.061,9.648C39.061,10.482 38.853,11.233 38.439,11.901C38.024,12.556 37.421,13.069 36.631,13.442C35.84,13.814 34.901,14 33.812,14Z" style="fill-rule:nonzero;"/>
    <path d="M51.385,0.231L51.385,3.62L47.73,3.62L47.73,13.865L43.415,13.865L43.415,3.62L39.799,3.62L39.799,0.231L51.385,0.231Z" style="fill-rule:nonzero;"/>
    <path d="M57.108,0.231L57.108,7.915C57.108,8.544 57.244,9.044 57.516,9.417C57.801,9.776 58.255,9.956 58.877,9.956C59.499,9.956 59.959,9.776 60.257,9.417C60.555,9.044 60.704,8.544 60.704,7.915L60.704,0.231L65,0.231L65,7.915C65,9.211 64.728,10.322 64.184,11.246C63.639,12.158 62.894,12.845 61.948,13.307C61.002,13.769 59.946,14 58.78,14C57.613,14 56.577,13.769 55.669,13.307C54.775,12.845 54.075,12.158 53.57,11.246C53.065,10.335 52.812,9.224 52.812,7.915L52.812,0.231L57.108,0.231Z" style="fill-rule:nonzero;"/>
    <path d="M72.261,0.231C73.7,0.231 74.957,0.52 76.032,1.098C77.121,1.675 77.957,2.478 78.54,3.505C79.123,4.532 79.415,5.7 79.415,7.01C79.415,8.306 79.123,9.475 78.54,10.514C77.957,11.554 77.121,12.376 76.032,12.979C74.957,13.57 73.7,13.865 72.261,13.865L66.527,13.865L66.527,0.231L72.261,0.231ZM71.872,10.052C72.844,10.052 73.615,9.789 74.186,9.263C74.756,8.736 75.041,7.985 75.041,7.01C75.041,6.034 74.756,5.283 74.186,4.757C73.615,4.23 72.844,3.967 71.872,3.967L70.842,3.967L70.842,10.052L71.872,10.052Z" style="fill-rule:nonzero;"/>
    <rect x="80.973" y="0.231" width="4.315" height="13.634" style="fill-rule:nonzero;"/>
    <path d="M93.944,14C92.648,14 91.456,13.698 90.367,13.095C89.291,12.492 88.436,11.657 87.801,10.592C87.166,9.526 86.849,8.326 86.849,6.99C86.849,5.655 87.166,4.455 87.801,3.389C88.436,2.324 89.291,1.496 90.367,0.905C91.456,0.302 92.648,0 93.944,0C95.24,0 96.425,0.302 97.501,0.905C98.577,1.496 99.426,2.324 100.048,3.389C100.683,4.455 101,5.655 101,6.99C101,8.326 100.683,9.526 100.048,10.592C99.426,11.657 98.57,12.492 97.482,13.095C96.406,13.698 95.227,14 93.944,14ZM93.944,10.014C94.799,10.014 95.46,9.744 95.927,9.205C96.393,8.653 96.626,7.915 96.626,6.99C96.626,6.053 96.393,5.315 95.927,4.776C95.46,4.224 94.799,3.948 93.944,3.948C93.076,3.948 92.408,4.224 91.942,4.776C91.475,5.315 91.242,6.053 91.242,6.99C91.242,7.915 91.475,8.653 91.942,9.205C92.408,9.744 93.076,10.014 93.944,10.014Z" style="fill-rule:nonzero;"/>
</svg>
